<svg width="1920" height="1080" viewBox="0 0 1920 1080" fill="none" xmlns="http://www.w3.org/2000/svg">
  <rect width="1920" height="1080" fill="white" />
  <path fill-rule="evenodd" clip-rule="evenodd"
    d="M945.838 182H772V661H940.405C1016.46 661 1074.86 639.085 1115.6 595.255C1154.53 553.214 1174 495.296 1174 421.5C1174 346.363 1155.89 288.444 1119.68 247.745C1080.74 203.915 1022.8 182 945.838 182ZM880.248 571.775V267.2L1063.07 417.475L880.248 571.775Z"
    fill="url(#paint0_linear_1059_2)" />
  <path
    d="M615.438 836H628.638V805.1C628.638 798.1 627.538 787.8 626.738 780.8H627.138L633.138 798.2L644.538 829.4H653.038L664.438 798.2L670.538 780.8H671.038C670.238 787.8 669.038 798.1 669.038 805.1V836H682.538V762H666.138L653.838 796.7C652.338 801.3 651.038 806.1 649.338 810.9H648.938C647.338 806.1 646.038 801.3 644.338 796.7L631.738 762H615.438V836ZM699.492 836H714.192V780.1H699.492V836ZM706.792 771C711.892 771 715.392 767.8 715.392 762.9C715.392 758.1 711.892 755 706.792 755C701.692 755 698.292 758.1 698.292 762.9C698.292 767.8 701.692 771 706.792 771ZM729.863 836H744.563V797.5C748.663 793.5 751.563 791.3 756.163 791.3C761.563 791.3 764.063 794.2 764.063 803V836H778.763V801.1C778.763 787.1 773.463 778.7 761.463 778.7C753.863 778.7 748.063 782.7 743.263 787.5H742.963L741.763 780.1H729.863V836ZM813.625 837.4C819.425 837.4 825.025 834.3 829.125 830.2H829.425L830.525 836H842.525V756.3H827.825V775.9L828.425 784.7C824.325 781 820.425 778.7 814.125 778.7C802.125 778.7 790.625 789.8 790.625 808.1C790.625 826.5 799.625 837.4 813.625 837.4ZM817.325 825.3C810.025 825.3 805.725 819.6 805.725 807.9C805.725 796.7 811.125 790.7 817.425 790.7C820.925 790.7 824.525 791.9 827.825 795V819.6C824.625 823.7 821.325 825.3 817.325 825.3ZM881.581 837.4C898.581 837.4 908.681 827.1 908.681 815C908.681 804.4 902.781 798.6 893.881 794.9L884.181 790.9C877.881 788.4 872.581 786.4 872.581 781.1C872.581 776.3 876.681 773.4 883.181 773.4C889.281 773.4 894.181 775.6 898.981 779.5L906.381 770.2C900.381 764.1 891.781 760.7 883.181 760.7C868.281 760.7 857.581 770 857.581 782.1C857.581 792.8 865.181 798.9 872.581 801.9L882.481 806.1C889.081 808.9 893.581 810.7 893.581 816.2C893.581 821.3 889.581 824.6 881.881 824.6C875.381 824.6 868.281 821.4 863.081 816.5L854.581 826.7C861.781 833.6 871.581 837.4 881.581 837.4ZM920.683 836H935.383V797.5C939.483 793.5 942.383 791.3 946.983 791.3C952.383 791.3 954.883 794.2 954.883 803V836H969.583V801.1C969.583 787.1 964.283 778.7 952.283 778.7C944.683 778.7 939.083 782.7 934.683 786.9L935.383 776.4V756.3H920.683V836ZM1008.05 837.4C1022.05 837.4 1034.85 826.6 1034.85 808.1C1034.85 789.5 1022.05 778.7 1008.05 778.7C993.948 778.7 981.148 789.5 981.148 808.1C981.148 826.6 993.948 837.4 1008.05 837.4ZM1008.05 825.5C1000.35 825.5 996.148 818.6 996.148 808.1C996.148 797.5 1000.35 790.7 1008.05 790.7C1015.65 790.7 1019.85 797.5 1019.85 808.1C1019.85 818.6 1015.65 825.5 1008.05 825.5ZM1055.08 836H1071.88L1077.58 811.7C1078.78 806.4 1079.68 801.3 1080.68 795.3H1081.18C1082.28 801.3 1083.18 806.4 1084.38 811.6L1090.28 836H1107.58L1121.48 780.1H1107.78L1101.78 807.7C1100.68 813.2 1099.98 818.5 1098.98 824H1098.48C1097.28 818.5 1096.18 813.2 1094.88 807.7L1087.88 780.1H1074.88L1068.08 807.7C1066.68 813.1 1065.68 818.5 1064.68 824H1064.18C1063.18 818.5 1062.48 813.2 1061.48 807.7L1055.28 780.1H1040.68L1055.08 836ZM1132.4 837.4C1137.6 837.4 1141.6 833.3 1141.6 827.8C1141.6 822.3 1137.6 818.3 1132.4 818.3C1127.1 818.3 1123.3 822.3 1123.3 827.8C1123.3 833.3 1127.1 837.4 1132.4 837.4ZM1159.02 836H1173.72V775.3C1173.72 769.1 1176.12 766.4 1180.52 766.4C1182.42 766.4 1184.52 766.9 1186.42 767.7L1189.22 756.7C1186.72 755.8 1182.92 754.9 1178.52 754.9C1164.52 754.9 1159.02 763.9 1159.02 775.5V836ZM1151.52 791.6H1184.32V780.1H1159.92L1151.52 780.7V791.6ZM1210.53 837.4C1218.13 837.4 1223.43 833.7 1228.33 828H1228.63L1229.73 836H1241.73V780.1H1227.13V817.8C1223.33 822.8 1220.33 824.8 1215.73 824.8C1210.23 824.8 1207.83 821.8 1207.83 813.2V780.1H1193.13V815C1193.13 829.1 1198.43 837.4 1210.53 837.4ZM1257.5 836H1272.2V797.5C1276.3 793.5 1279.2 791.3 1283.8 791.3C1289.2 791.3 1291.7 794.2 1291.7 803V836H1306.4V801.1C1306.4 787.1 1301.1 778.7 1289.1 778.7C1281.5 778.7 1275.7 782.7 1270.9 787.5H1270.6L1269.4 780.1H1257.5V836Z"
    fill="#9E00A1" />
  <defs>
    <linearGradient id="paint0_linear_1059_2" x1="749.667" y1="209.849" x2="1172.9" y2="662.027"
      gradientUnits="userSpaceOnUse">
      <stop stop-color="#A20BBA" />
      <stop offset="1" stop-color="#E402C0" />
    </linearGradient>
  </defs>
</svg>